<svg xmlns="http://www.w3.org/2000/svg" width="57" height="54.171" viewBox="0 0 57 54.171">
  <path id="home-ic-gray" d="M204.988,184.649c-3.867-3.424-8.243-6.277-11.667-10.208a3.06,3.06,0,0,0-1.015-.824,1.666,1.666,0,0,0-.951.127c-7.038,2.029-11.6,8.5-16.485,13.949a78.61,78.61,0,0,1-11.983,10.969c4.185-.19,8.432-.444,12.617-.634q-.095,14.742-.19,29.482c11.349.063,22.762.19,34.112.254a255.127,255.127,0,0,1,.824-29.546,44.565,44.565,0,0,0,9.637-.634c-5.705-3.3-9.953-8.623-14.9-12.935ZM191.356,209.82a77.176,77.176,0,0,1-10.145.444v-9.51c3.361.317,6.657.7,10.018,1.015a56.776,56.776,0,0,1,.127,8.052Zm13.949,0a77.176,77.176,0,0,1-10.145.444v-9.51c3.361.317,6.658.7,10.018,1.015a68.16,68.16,0,0,1,.127,8.052Z" transform="translate(-162.887 -173.592)" fill="#3b3b3b"/>
</svg>
