<svg id="discord-icon-svgrepo-com" xmlns="http://www.w3.org/2000/svg" width="23.253" height="18" viewBox="0 0 23.253 18">
  <path id="Path_26" data-name="Path 26" d="M19.7,1.507A18.938,18.938,0,0,0,14.9,0a14.079,14.079,0,0,0-.615,1.276,17.615,17.615,0,0,0-5.317,0A13.638,13.638,0,0,0,8.347,0a18.875,18.875,0,0,0-4.8,1.511A20.119,20.119,0,0,0,.1,14.983,19.18,19.18,0,0,0,5.982,18a14.636,14.636,0,0,0,1.26-2.075,12.387,12.387,0,0,1-1.984-.966c.166-.123.329-.252.486-.385a13.559,13.559,0,0,0,11.764,0c.159.133.322.262.486.385a12.354,12.354,0,0,1-1.988.968A14.563,14.563,0,0,0,17.267,18a19.141,19.141,0,0,0,5.887-3.017A20.1,20.1,0,0,0,19.7,1.507ZM7.764,12.271a2.257,2.257,0,0,1-2.09-2.378,2.245,2.245,0,0,1,2.09-2.38,2.231,2.231,0,0,1,2.09,2.38A2.242,2.242,0,0,1,7.764,12.271Zm7.725,0A2.257,2.257,0,0,1,13.4,9.893a2.245,2.245,0,0,1,2.09-2.38,2.231,2.231,0,0,1,2.09,2.38A2.244,2.244,0,0,1,15.489,12.271Z" transform="translate(0)" fill="#5865f2"/>
</svg>
