<svg xmlns="http://www.w3.org/2000/svg" width="55" height="50.769" viewBox="0 0 55 50.769">
  <g id="download_-_2022-02-03T163544.539" data-name="download - 2022-02-03T163544.539" transform="translate(-183.605 -198.408)">
    <path id="Path_21" data-name="Path 21" d="M443.8,276.7a4.3,4.3,0,1,1-4.3-4.3,4.3,4.3,0,0,1,4.3,4.3" transform="translate(-215.742 -63.453)" fill="#5a6554"/>
    <path id="Path_22" data-name="Path 22" d="M207.558,222.211l23.383,26.5a10.559,10.559,0,0,0,7.664-10.116V208.983a10.589,10.589,0,0,0-10.577-10.575H194.182a10.589,10.589,0,0,0-10.577,10.575v19.808l9.249-7.707a10.525,10.525,0,0,1,14.7,1.127ZM223.8,204.754a8.46,8.46,0,1,1-5.983,2.478A8.462,8.462,0,0,1,223.8,204.754Z" fill="#5a6554"/>
    <path id="Path_23" data-name="Path 23" d="M194.368,396.193h32.045l-21.672-24.565a6.421,6.421,0,0,0-8.968-.69L183.615,381.07v4.37a10.766,10.766,0,0,0,10.753,10.753Z" transform="translate(-0.008 -147.016)" fill="#5a6554"/>
  </g>
</svg>
