<svg id="discord-ic" xmlns="http://www.w3.org/2000/svg" width="32" height="32" viewBox="0 0 32 32">
  <circle id="Ellipse_9" data-name="Ellipse 9" cx="16" cy="16" r="16" fill="#242424"/>
  <g id="discord-icon-svgrepo-com" transform="translate(6.957 9)">
    <path id="Path_26" data-name="Path 26" d="M15.32,1.172A14.73,14.73,0,0,0,11.589,0a10.95,10.95,0,0,0-.478.992,13.7,13.7,0,0,0-4.135,0A10.608,10.608,0,0,0,6.492,0,14.681,14.681,0,0,0,2.758,1.175,15.648,15.648,0,0,0,.077,11.654,14.918,14.918,0,0,0,4.653,14a11.383,11.383,0,0,0,.98-1.614,9.634,9.634,0,0,1-1.543-.751c.129-.1.256-.2.378-.3a10.546,10.546,0,0,0,9.149,0c.124.1.25.2.378.3a9.609,9.609,0,0,1-1.546.753A11.327,11.327,0,0,0,13.43,14a14.888,14.888,0,0,0,4.579-2.346A15.633,15.633,0,0,0,15.32,1.172ZM6.038,9.544a1.755,1.755,0,0,1-1.626-1.85A1.746,1.746,0,0,1,6.038,5.844,1.735,1.735,0,0,1,7.664,7.694,1.744,1.744,0,0,1,6.038,9.544Zm6.009,0a1.755,1.755,0,0,1-1.626-1.85,1.746,1.746,0,0,1,1.626-1.851,1.735,1.735,0,0,1,1.626,1.851A1.745,1.745,0,0,1,12.047,9.544Z" transform="translate(0)" fill="#9a9a9a"/>
  </g>
</svg>
