<svg id="Component_18_9" data-name="Component 18 – 9" xmlns="http://www.w3.org/2000/svg" width="32" height="32" viewBox="0 0 32 32">
  <circle id="Ellipse_10" data-name="Ellipse 10" cx="16" cy="16" r="16" fill="#242424"/>
  <g id="XMLID_1_" transform="translate(-143.721 -226.532)">
    <path id="XMLID_16_" d="M159.092,232.986a7.008,7.008,0,0,0-6.041,5.984,6.707,6.707,0,0,0,5.883,7.351.6.6,0,0,1,.539.587l.1,4.573a.641.641,0,0,0,.64.626.609.609,0,0,0,.329-.092.67.67,0,0,0,.237-.245l4.065-7.626c.145-.267.3-.53.473-.784a6.709,6.709,0,0,0-6.225-10.373Zm.626,11.845a5.169,5.169,0,1,1,5.169-5.169A5.167,5.167,0,0,1,159.718,244.831Z" transform="translate(0 0)" fill="#9a9a9a"/>
    <path id="XMLID_2_" d="M240.082,310.888v1c0,.53-.18.71-.705.714h-2.212c-.442,0-.635-.193-.644-.64,0-.355,0-.71,0-1.069-.74.118-1.126-.276-1-.99a1.119,1.119,0,0,0-.114-.793,1.781,1.781,0,0,1-.057-1.6,2.517,2.517,0,0,1,1.327-1.419,3.788,3.788,0,0,1,3.3.031,2.357,2.357,0,0,1,1.419,2.212,2.023,2.023,0,0,1-.228.832.964.964,0,0,0-.1.648c.009.048.022.1.026.149C241.177,310.643,240.8,311.011,240.082,310.888Zm-2.834-.745a.6.6,0,1,0,0-1.192.6.6,0,1,0,0,1.192Zm2.111,0a.6.6,0,1,0,0-1.192.642.642,0,0,0-.666.587A.634.634,0,0,0,239.359,310.144Zm-1.082.026a5.609,5.609,0,0,0-.258.508c-.149.394-.035.53.381.521.184,0,.254-.1.237-.258A1.272,1.272,0,0,0,238.277,310.17Z" transform="translate(-78.572 -69.579)" fill="#9a9a9a"/>
  </g>
</svg>
