<svg xmlns="http://www.w3.org/2000/svg" width="40" height="57.127" viewBox="0 0 40 57.127">
  <g id="map-ic-gray" transform="translate(-153.016 -232.958)">
    <path id="XMLID_16_" d="M171.14,233.042c-8.939.81-17.133,8.926-18.021,17.851a20.01,20.01,0,0,0,17.551,21.929,1.8,1.8,0,0,1,1.607,1.751l.3,13.643a1.911,1.911,0,0,0,1.908,1.869,1.818,1.818,0,0,0,.98-.274,2,2,0,0,0,.706-.732L188.3,266.327c.431-.8.9-1.581,1.411-2.339a20.014,20.014,0,0,0-18.57-30.946Zm1.869,35.337a15.421,15.421,0,1,1,15.421-15.421A15.416,15.416,0,0,1,173.009,268.378Z" transform="translate(0)" fill="#3b3b3b"/>
    <path id="XMLID_2_" d="M247.384,318.594v2.489c-.011,1.321-.448,1.769-1.758,1.78h-5.513c-1.1,0-1.583-.48-1.6-1.594-.011-.884,0-1.768,0-2.664-1.845.295-2.806-.688-2.489-2.467a2.789,2.789,0,0,0-.284-1.976,4.439,4.439,0,0,1-.142-4,6.272,6.272,0,0,1,3.308-3.537,9.442,9.442,0,0,1,8.221.076,5.873,5.873,0,0,1,3.537,5.513,5.042,5.042,0,0,1-.568,2.074,2.4,2.4,0,0,0-.251,1.616c.022.12.055.251.066.371C250.114,317.982,249.164,318.9,247.384,318.594Zm-7.063-1.856a1.495,1.495,0,1,0-.011-2.969,1.493,1.493,0,1,0,.011,2.969Zm5.262,0a1.493,1.493,0,1,0-.011-2.969,1.6,1.6,0,0,0-1.659,1.463A1.579,1.579,0,0,0,245.583,316.738Zm-2.7.065a13.976,13.976,0,0,0-.644,1.266c-.371.983-.087,1.321.95,1.3.459-.011.633-.251.59-.644A3.169,3.169,0,0,0,242.886,316.8Z" transform="translate(-69.909 -61.341)" fill="#3b3b3b"/>
  </g>
</svg>
