<svg id="Component_14_1" data-name="Component 14 – 1" xmlns="http://www.w3.org/2000/svg" width="29.408" height="47.769" viewBox="0 0 29.408 47.769">
  <g id="XMLID_1_" transform="translate(-153.016 -232.958)">
    <path id="XMLID_16_" d="M166.341,233.02a15.37,15.37,0,0,0-13.249,13.124A14.711,14.711,0,0,0,166,262.266a1.324,1.324,0,0,1,1.182,1.287l.221,10.031a1.4,1.4,0,0,0,1.4,1.374,1.336,1.336,0,0,0,.721-.2,1.469,1.469,0,0,0,.519-.538l8.916-16.727c.317-.586.663-1.163,1.038-1.72a14.714,14.714,0,0,0-13.653-22.751ZM167.715,259a11.337,11.337,0,1,1,11.337-11.337A11.334,11.334,0,0,1,167.715,259Z" transform="translate(0 0)" fill="#e02f21"/>
    <path id="XMLID_2_" d="M245.921,317.05v2.191c-.01,1.163-.394,1.556-1.547,1.566h-4.852c-.97,0-1.393-.423-1.412-1.4-.01-.778,0-1.556,0-2.344-1.624.259-2.469-.605-2.191-2.171a2.455,2.455,0,0,0-.25-1.739,3.907,3.907,0,0,1-.125-3.516,5.52,5.52,0,0,1,2.911-3.113,8.309,8.309,0,0,1,7.235.067,5.169,5.169,0,0,1,3.113,4.852,4.437,4.437,0,0,1-.5,1.825,2.113,2.113,0,0,0-.221,1.422c.019.106.048.221.058.327C248.323,316.512,247.487,317.319,245.921,317.05Zm-6.216-1.633a1.315,1.315,0,1,0-.01-2.613,1.314,1.314,0,1,0,.01,2.613Zm4.631,0a1.314,1.314,0,1,0-.01-2.613,1.407,1.407,0,0,0-1.46,1.287A1.39,1.39,0,0,0,244.336,315.417Zm-2.373.058a12.308,12.308,0,0,0-.567,1.115c-.327.865-.077,1.163.836,1.143.4-.01.557-.221.519-.567A2.789,2.789,0,0,0,241.963,315.474Z" transform="translate(-74.277 -65.776)" fill="#1e1e1e"/>
  </g>
  <ellipse id="Ellipse_6" data-name="Ellipse 6" cx="10" cy="2" rx="10" ry="2" transform="translate(5.589 43.769)" opacity="0.6"/>
</svg>
