<svg xmlns="http://www.w3.org/2000/svg" xmlns:xlink="http://www.w3.org/1999/xlink" width="66" height="63.353" viewBox="0 0 66 63.353">
  <defs>
    <filter id="download_-_2022-02-03T164246.930" x="0" y="0" width="66" height="63.353" filterUnits="userSpaceOnUse">
      <feOffset dy="8" input="SourceAlpha"/>
      <feGaussianBlur stdDeviation="1.5" result="blur"/>
      <feFlood/>
      <feComposite operator="in" in2="blur"/>
      <feComposite in="SourceGraphic"/>
    </filter>
  </defs>
  <g transform="matrix(1, 0, 0, 1, 0, 0)" filter="url(#download_-_2022-02-03T164246.930)">
    <path id="download_-_2022-02-03T164246.930-2" data-name="download - 2022-02-03T164246.930" d="M149.451,169.684a4.688,4.688,0,0,0-4.7,4.662V202.6a4.688,4.688,0,0,0,4.7,4.662h1.836V219.7a.84.84,0,0,0,1.41.61l14.155-13.051h30.206a4.688,4.688,0,0,0,4.7-4.662V174.345a4.688,4.688,0,0,0-4.7-4.662Zm7.6,9.534h32.4a1.1,1.1,0,0,1,.126.009,1.12,1.12,0,0,1,.515.2c.03.022.059.045.087.07s.054.051.079.078.049.056.071.086a1.137,1.137,0,0,1,.116.191,1.124,1.124,0,0,1,.1.32,1.049,1.049,0,0,1,.01.111,1.12,1.12,0,0,1-.167.639,1.088,1.088,0,0,1-.064.092,1.116,1.116,0,0,1-.54.38,1.123,1.123,0,0,1-.218.048,1.088,1.088,0,0,1-.112.007h-32.4a1.123,1.123,0,0,1-.448-.1,1.1,1.1,0,0,1-.28-.182,1.111,1.111,0,0,1-.08-.079,1.12,1.12,0,0,1-.262-.487,1.141,1.141,0,0,1-.032-.221,1.086,1.086,0,0,1,0-.112,1.119,1.119,0,0,1,.167-.527,1.146,1.146,0,0,1,.136-.177c.026-.027.053-.053.081-.078a1.091,1.091,0,0,1,.182-.128,1.012,1.012,0,0,1,.1-.05c.034-.015.069-.028.1-.04a1.128,1.128,0,0,1,.33-.054Zm0,7.864h32.417a1.067,1.067,0,0,1,.111.009c.037,0,.074.012.11.02a1.052,1.052,0,0,1,.108.031,1.119,1.119,0,0,1,.534.388,1.013,1.013,0,0,1,.063.093,1.061,1.061,0,0,1,.053.1,1.114,1.114,0,0,1,.107.431c0,.038,0,.075,0,.112a1.132,1.132,0,0,1-.035.221,1.111,1.111,0,0,1-.132.307,1.013,1.013,0,0,1-.064.092,1.108,1.108,0,0,1-.072.085,1.024,1.024,0,0,1-.081.077,1.11,1.11,0,0,1-.716.273H157.039a1.085,1.085,0,0,1-.111-.009,1.119,1.119,0,0,1-.815-.531,1.065,1.065,0,0,1-.053-.1c-.016-.034-.03-.068-.043-.1a1.122,1.122,0,0,1-.051-.551c.006-.037.013-.074.023-.109a1.12,1.12,0,0,1,.078-.209c.016-.033.035-.066.054-.1a1.085,1.085,0,0,1,.064-.091,1.018,1.018,0,0,1,.072-.085,1.171,1.171,0,0,1,.169-.146c.03-.021.062-.041.094-.06a1.134,1.134,0,0,1,.2-.09c.036-.012.071-.021.108-.029s.073-.014.11-.018.074-.006.112-.007Zm0,7.864h32.417a1.118,1.118,0,0,1,1.022.741c.012.035.023.071.032.107a1.049,1.049,0,0,1,.022.11,1.123,1.123,0,0,1,0,.334,1.068,1.068,0,0,1-.023.11c-.01.036-.021.071-.034.106s-.028.069-.044.1-.034.066-.054.1a1.154,1.154,0,0,1-.136.177,1.118,1.118,0,0,1-.363.256c-.034.015-.069.028-.1.04a1.126,1.126,0,0,1-.218.048,1.076,1.076,0,0,1-.112.007H157.039a1.106,1.106,0,0,1-.221-.028,1.114,1.114,0,0,1-.7-.511c-.019-.032-.037-.065-.053-.1a1.126,1.126,0,0,1-.1-.32c0-.037-.009-.074-.01-.111a1.114,1.114,0,0,1,.114-.542,1.1,1.1,0,0,1,.118-.189,1.084,1.084,0,0,1,.153-.162,1.118,1.118,0,0,1,.6-.266A1.075,1.075,0,0,1,157.054,194.946Z" transform="translate(-140.25 -169.68)" fill="#3e4661"/>
  </g>
</svg>
