<svg xmlns="http://www.w3.org/2000/svg" width="20.014" height="19.957" viewBox="0 0 20.014 19.957">
  <g id="refresh-svgrepo-com" transform="translate(0 -0.695)">
    <path id="Path_47" data-name="Path 47" d="M18.829,6.1A9.97,9.97,0,0,0,5.267,1.844a.816.816,0,1,0,.764,1.443,8.331,8.331,0,0,1,11.31,3.527c2.673,5.489-.777,9.675-3.572,11.224a8.329,8.329,0,0,1-10.938-2.89l2.833.593A.825.825,0,0,0,6,14.126L.984,13.1a.849.849,0,0,0-.977.936L.644,19.1a.793.793,0,0,0,.809.723.87.87,0,0,0,.809-.977l-.245-2.064a10.172,10.172,0,0,0,12.565,2.788C16.957,18.344,22.41,13.534,18.829,6.1Z" transform="translate(0 0)" fill="#e0a721"/>
  </g>
</svg>
