<svg xmlns="http://www.w3.org/2000/svg" width="15.284" height="14.499" viewBox="0 0 15.284 14.499">
  <g id="comment-Regular" transform="translate(-2.25 -3.25)">
    <path id="comment-Regular-2" data-name="comment-Regular" d="M13.811,3.25H5.973A3.728,3.728,0,0,0,2.25,6.973V17.162a.588.588,0,0,0,1,.415l1.892-1.892a.977.977,0,0,1,.694-.287h7.972a3.728,3.728,0,0,0,3.723-3.723v-4.7A3.728,3.728,0,0,0,13.811,3.25Zm2.547,8.426a2.55,2.55,0,0,1-2.547,2.547H5.839a2.14,2.14,0,0,0-1.524.632l-.889.888V6.973A2.55,2.55,0,0,1,5.973,4.426h7.838a2.55,2.55,0,0,1,2.547,2.547Z" fill="#6ecfa5"/>
  </g>
</svg>
