<svg width="27" height="27" viewBox="0 0 27 27" fill="none" xmlns="http://www.w3.org/2000/svg">
<path d="M26.149 0.0598634L0.338044 11.3099C0.235977 11.3591 0.15019 11.4366 0.090872 11.5332C0.0315538 11.6297 0.00119733 11.7413 0.00340865 11.8546C0.00561997 11.9679 0.0403063 12.0782 0.103347 12.1724C0.166388 12.2665 0.255134 12.3406 0.359044 12.3859L7.34104 16.3309C7.54262 16.4445 7.77431 16.4933 8.00459 16.4706C8.23488 16.4478 8.45257 16.3547 8.62804 16.2039L22.395 4.33486C22.486 4.25786 22.704 4.10986 22.789 4.19386C22.874 4.27786 22.74 4.49386 22.662 4.58786L10.751 18.0039C10.5893 18.1853 10.4908 18.4143 10.4704 18.6565C10.4501 18.8987 10.5089 19.141 10.638 19.3469L15.2 26.6669C15.25 26.7666 15.3271 26.8503 15.4224 26.9083C15.5177 26.9663 15.6274 26.9963 15.7389 26.9948C15.8505 26.9933 15.9594 26.9605 16.0531 26.9C16.1469 26.8395 16.2217 26.7539 16.269 26.6529L26.944 0.840863C26.9951 0.730115 27.0107 0.606299 26.9888 0.48634C26.9668 0.366381 26.9083 0.256133 26.8213 0.170668C26.7343 0.0852029 26.623 0.0286911 26.5027 0.00885802C26.3824 -0.0109751 26.2589 0.00683866 26.149 0.0598634V0.0598634Z" fill="white"/>
</svg>
