<svg xmlns="http://www.w3.org/2000/svg" width="54.745" height="55" viewBox="0 0 54.745 55">
  <path id="token-ic-gray" d="M170.121,180.823a12.168,12.168,0,0,0,1.078-4.111h3.154a15.274,15.274,0,0,1-1.493,5.692Zm-10.109,7.062a12.7,12.7,0,0,0,4.082-1.111l1.574,2.727a15.944,15.944,0,0,1-5.656,1.541Zm-6.3-1.072a11.864,11.864,0,0,0,4.106,1.091v3.157a14.927,14.927,0,0,1-5.684-1.515Zm-4.886-4.108a12.99,12.99,0,0,0,3,3l-1.579,2.735a16.263,16.263,0,0,1-4.155-4.155Zm-2.2-5.993a11.9,11.9,0,0,0,1.09,4.105l-2.735,1.577a14.883,14.883,0,0,1-1.513-5.683Zm1.13-6.271a12.686,12.686,0,0,0-1.111,4.082h-3.157a15.954,15.954,0,0,1,1.54-5.656Zm4.059-4.928a12.293,12.293,0,0,0-2.974,3.025l-2.726-1.574a15.387,15.387,0,0,1,4.12-4.188Zm6-2.177a12.14,12.14,0,0,0-4.11,1.077l-1.581-2.739a15.23,15.23,0,0,1,5.692-1.493v3.155Zm6.288,1.1a12.264,12.264,0,0,0-4.1-1.095v-3.156a15.382,15.382,0,0,1,5.676,1.517Zm4.895,4.1a12.39,12.39,0,0,0-3-3l1.58-2.735a15.54,15.54,0,0,1,4.156,4.155Zm2.192,6a12.234,12.234,0,0,0-1.1-4.1l2.733-1.578a15.373,15.373,0,0,1,1.517,5.677ZM145.78,188.756c11.676,11.676,31.722,3.363,31.722-13.141a18.582,18.582,0,0,0-18.582-18.582C142.418,157.033,134.1,177.078,145.78,188.756Zm28.874-36.4c3.748,0,17.394-.783,20.411-4.607v-1.966c0-5.61-15.006-6.574-20.412-6.574s-20.411.964-20.411,6.574v1.966c3.015,3.823,16.668,4.607,20.411,4.607Zm9.584,3.164.153,2.077-2.078.153-.152-2.077Zm-7.4.467v2.083h-2.084v-2.083Zm11.793-1.442,2.068-.254.253,2.068-2.067.254Zm6.433-3.926c-5.02,3.259-14.661,4.029-20.411,4.029s-15.394-.771-20.411-4.029v4.623l.073.09a21.534,21.534,0,0,1,6.5-.4l.078-.638,2.067.254-.083.676a20.466,20.466,0,0,1,3.429.977l.971.4.079-1.075,2.078.154-.142,1.943a20.708,20.708,0,0,1,3.11,2.2c5.42.166,19.541-.618,22.663-4.574V150.62Zm-10.828,12.693.153,2.077-2.078.153-.152-2.077Zm6.462-1.5.254,2.068-2.068.254-.253-2.068Zm4.366-3.7c-5.005,3.25-14.6,4.024-20.338,4.029q.67.785,1.262,1.637h.85v1.329a20.677,20.677,0,0,1,1.075,2.093c2.9-.127,14.493-1.167,17.151-4.535Zm-10.828,12.5.153,2.077-2.078.153-.152-2.077Zm4.4-1.25,2.067-.254.254,2.068-2.068.254Zm6.433-3.829c-4.16,2.7-11.5,3.636-16.307,3.913a20.547,20.547,0,0,1,.9,5.128c2.973-.209,13-1.393,15.4-4.436Zm-10.828,12.655.153,2.077-2.078.153-.152-2.077Zm6.462-1.5.254,2.068-2.068.254-.253-2.068Zm4.366-3.677c-3.969,2.576-10.814,3.531-15.413,3.856a20.723,20.723,0,0,1-.981,5.294c4.754-.27,16.394-1.575,16.394-6.46ZM166,185.689a12.284,12.284,0,0,0,3.026-2.973l2.738,1.58a15.417,15.417,0,0,1-4.189,4.121Z" transform="translate(-140.325 -139.211)" fill="#3b3b3b" fill-rule="evenodd"/>
</svg>
